<?xml version="1.0" encoding="UTF-8"?>
<svg width="770px" height="541px" viewBox="0 0 770 541" version="1.1" xmlns="http://www.w3.org/2000/svg" xmlns:xlink="http://www.w3.org/1999/xlink">
    <!-- Generator: Sketch 60.1 (88133) - https://sketch.com -->
    <title>编组 7</title>
    <desc>Created with Sketch.</desc>
    <defs>
        <path d="M129,67.5209947 C90.8708267,84.5209947 15.7028579,110.711171 1.6677017,194.248818 C-12.3674546,277.786464 71.3164063,304.50537 76.4177017,373.809715 C81.5189971,443.114061 179,488.27923 213.632545,495.57534 C248.265091,502.871451 628.370848,590.127906 734,399.497935 C839.629152,208.867965 678.220743,254.10052 637.651576,192.193404 C597.082409,130.286288 598.050377,45.1259793 550.523023,17.8749986 C502.995668,-9.37598208 408,-2.02026663 359,28.250364 C310,58.5209947 167.129173,50.5209947 129,67.5209947 Z" id="path-1"></path>
        <path d="M-2.27373675e-13,20.3754883 L89.1835938,20.3754883 C86.7840789,6.79182943 72.8677939,-1.15463195e-13 47.4347388,-1.15463195e-13 C22.0016838,-1.15463195e-13 6.19010417,6.79182943 -2.27373675e-13,20.3754883 Z" id="path-3"></path>
        <path d="M3.45549657,97.8559664 C-3.94499968,147.050815 6.8831912,173.590622 35.9400692,177.47539 C79.5253862,183.302541 127.832851,191.308008 182.371015,180.24952 C236.909179,169.191032 249.810044,153.778026 253.853977,130.9934 C257.897911,108.208773 265.469213,68.5650124 267.612646,50.2562957 C269.75608,31.9475791 277.433023,18.4541632 267.612646,13.4700262 C257.79227,8.48588913 175.948049,-9.77730735 112.189548,9.99444099 C48.4310477,29.7661893 22.2257693,43.9072784 14.7928765,53.4741171 C9.83761467,59.8520096 6.05848802,74.6459594 3.45549657,97.8559664 Z" id="path-5"></path>
        <path d="M0,1.13686838e-13 L99.9620449,1.13686838e-13 L95.9057034,55.9910085 C91.4429509,61.618657 83.018872,68.5372323 70.6334668,76.7467346 C58.2480615,84.9562368 45.6562646,91.967757 32.8580761,97.7812951 L8.88286662,97.7812951 L0,1.13686838e-13 Z" id="path-7"></path>
        <path d="M64.3604004,1.0658141e-13 C76.3053368,18.5539438 80.9388389,41.336878 78.2609067,68.3488028 C74.2440084,108.86669 51.3633833,129.130631 26.2506908,124.563809 C1.1379982,119.996987 -4.37105568,85.464366 3.05511049,68.3488028 C10.4812767,51.2332396 23.3160181,48.8719418 39.498267,33.8427044 C50.2864329,23.8232129 58.5738107,12.5423114 64.3604004,1.0658141e-13 Z" id="path-9"></path>
        <path d="M49.5397161,5.00932629e-13 C28.0493672,8.51809716 13.7835136,16.2496146 6.74215512,23.1945522 C-0.299203321,30.1394899 -1.82518191,38.4192773 2.16421936,48.0339145 C8.04388202,57.4138487 16.2391558,60.4621671 26.7500408,57.1788697 C42.5163683,52.2539236 43.5174704,34.7582118 44.7863569,21.9892397 C45.6322813,13.4765917 47.2167344,6.14684509 49.5397161,5.00932629e-13 Z" id="path-11"></path>
        <path d="M-1.42108547e-14,5.68434189e-14 C16.6455403,0.0329737077 30.1637053,4.39841925 40.5544951,13.0963366 C56.1406797,26.1432127 62.2842186,49.6088609 53.8704101,63.88877 C45.4566015,78.1686792 28.825788,73.1428732 21.0554705,67.9591167 C13.285153,62.7753603 6.55088394,48.3421561 6.55088394,30.7192464 C6.55088394,18.9706399 4.36725596,8.73089108 -1.42108547e-14,5.68434189e-14 Z" id="path-13"></path>
    </defs>
    <g id="页面-1" stroke="none" stroke-width="1" fill="none" fill-rule="evenodd">
        <g id="画板" transform="translate(-436.000000, -1696.000000)">
            <g id="编组-7" transform="translate(436.000000, 1696.000000)">
                <g id="编组-2" transform="translate(0.000000, 18.510597)">
                    <mask id="mask-2" fill="white">
                        <use xlink:href="#path-1"></use>
                    </mask>
                    <use id="路径-418" fill="#F3F7FF" xlink:href="#path-1"></use>
                    <rect id="矩形" fill="#D0DEFE" mask="url(#mask-2)" x="57.6677017" y="393.489403" width="741" height="133"></rect>
                    <rect id="矩形" fill="#C4D6FF" mask="url(#mask-2)" transform="translate(428.167702, 386.989403) scale(1, -1) translate(-428.167702, -386.989403) " x="57.6677017" y="380.489403" width="741" height="13"></rect>
                </g>
                <polygon id="路径-425" fill="#D3DFFA" points="129 236.031592 131.814186 412 142 412 146.036612 236"></polygon>
                <rect id="矩形" fill="#D3DFFA" x="35.6677017" y="223" width="476" height="13" rx="6.5"></rect>
                <g id="台灯" transform="translate(356.667702, 0.000000)">
                    <path d="M0.959960938,224 L91.1839637,224 C91.1839637,222.4375 91.1839637,221.562663 91.1839637,221.375488 C87.9599609,215.633789 73.3430356,201 49.4347388,201 C25.8759965,201 9.64246522,208.218887 2,221.375488 C1.59464815,222.073307 1.24796846,222.948144 0.959960938,224 Z" id="路径-399" fill="#89ACFD"></path>
                    <g id="编组-136" transform="translate(2.000000, 201.000000)">
                        <mask id="mask-4" fill="white">
                            <use xlink:href="#path-3"></use>
                        </mask>
                        <use id="路径-399" fill="#ADC4F8" xlink:href="#path-3"></use>
                        <ellipse id="椭圆形" fill="#D0DEFE" mask="url(#mask-4)" cx="12.5" cy="8" rx="3.5" ry="3"></ellipse>
                        <path d="M12.5,5 C14.4329966,5 16,6.34314575 16,8 C16,9.65685425 14.4329966,11 12.5,11 C10.5670034,11 9,9.65685425 9,8 C9,6.34314575 10.5670034,5 12.5,5 Z M12.5,6 C11.0880133,6 10,6.93258279 10,8 C10,9.06741721 11.0880133,10 12.5,10 C13.9119867,10 15,9.06741721 15,8 C15,6.93258279 13.9119867,6 12.5,6 Z" id="椭圆形" fill="#FFFFFF" fill-rule="nonzero" mask="url(#mask-4)"></path>
                    </g>
                    <polygon id="路径-400" fill="#89ACFD" points="38.3388672 204.281738 36.1682129 206.005859 58.7590332 206.005859 58.2536621 204.281738"></polygon>
                    <path d="M5,2.87130849 C15.3313029,-0.433051724 25.6792742,-0.885368228 36.0439137,1.51435898 C51.5908729,5.11394979 56.2087441,10.5553855 57.5247805,13.9663217 C58.840817,17.3772579 65.0656619,31.9923088 61.9532395,41.5121695 C58.840817,51.0320303 49.358081,71.7385798 37.4478374,77.8679609 L6.31224822,5.25108427 L5,2.87130849 Z" id="路径-287" fill="#FBC869"></path>
                    <path d="M7.56901619,4.61277654 C17.3973737,1.64229661 27.241588,1.23568322 37.1016592,3.39293638 C51.891766,6.62881611 56.2848313,11.5204365 57.5368009,14.5867237 C58.7887705,17.6530109 64.7105793,30.7913228 61.7496749,39.3492746 C58.7887705,47.9072264 49.7676702,66.5215377 38.4372376,72.0315918 L8.81738192,6.75209421 L7.56901619,4.61277654 Z" id="路径-287" fill="#FFD07A"></path>
                    <path d="M5,2.87130849 C24.4629948,20.538675 35.2789406,45.5375591 37.4478374,77.8679609 C24.8947983,61.5979051 16.5229351,48.6199116 12.3322478,38.9339805 C9.31230453,31.9539889 6.86822195,19.9330982 5,2.87130849 Z" id="路径-288" fill="#FFE4B3"></path>
                    <path d="M6.56901619,8.03159178 C23.3640909,23.1084175 32.6974243,44.4417508 34.5690162,72.0315918 C24.7154538,58.0068525 17.9805514,46.8616344 14.364309,38.5959375 C10.7480666,30.3302407 8.14963567,20.1421254 6.56901619,8.03159178 Z" id="路径-288" fill="#FFF1D7"></path>
                    <path d="M69.1280982,29.0213379 C86.4774888,90.9557365 75.9174018,149.844358 37.4478374,205.687203 L57.7635632,205.563519 C69.1235585,181.354187 76.4023136,161.676878 79.5998287,146.531592 C95.3639381,71.863623 77.8596999,25.2004982 76.4742896,22.3855957 L70.8145477,27.7795091 L69.1280982,29.0213379 Z" id="路径-291" fill="#D0DEFE"></path>
                    <path d="M52.4347388,8.13950193 C61.9340216,2.95834297 68.3654829,1.20227849 71.7291228,2.87130849 C74.5109773,4.25165799 76.7812669,8.4793133 78.5399917,15.5542744 C79.257699,18.4414299 78.3140086,21.4883858 76.0900826,23.4644737 L62.8145088,35.2605957 L62.8145088,35.2605957 L52.4347388,8.13950193 Z" id="路径-290" fill="#FFBB3C"></path>
                    <path d="M54.0055217,9.74861433 C62.4052872,5.35238209 68.0923236,3.86235499 71.0666309,5.27853302 C73.385157,6.38246934 75.3018188,9.63270518 76.8166162,15.0292405 C77.6599499,18.033652 76.6793602,21.2542213 74.3047974,23.2788574 L63.1838603,32.7609611 L63.1838603,32.7609611 L54.0055217,9.74861433 Z" id="路径-290" fill="#FFC251"></path>
                </g>
                <g id="椅子" transform="translate(335.667702, 153.000000)">
                    <path d="M123.745622,186.185462 L127.597414,348.764927 C127.69016,352.679641 130.890264,355.804827 134.806076,355.804827 C138.695196,355.804827 141.847951,352.652072 141.847951,348.762952 L141.847951,186.185462 L141.847951,186.185462 L123.745622,186.185462 Z" id="路径-273" fill="#87B0FB"></path>
                    <path d="M165.782243,184.185462 L185.714408,368.016461 C186.083921,371.42442 188.961381,374.006752 192.389314,374.006752 C195.469782,374.006752 197.966995,371.509539 197.966995,368.42907 C197.966995,368.285643 197.961463,368.142269 197.95041,367.999268 L183.472866,180.678429 L183.472866,180.678429 L165.782243,184.185462 Z" id="路径-274" fill="#A4C3FC"></path>
                    <path d="M203.414695,173.934067 L258.419237,358.406857 C259.270033,361.260234 262.272859,362.883647 265.126237,362.032851 C265.159314,362.022988 265.192296,362.012808 265.225178,362.002312 C268.159224,361.065738 269.845304,357.994847 269.060727,355.016554 L220.321463,170 L220.321463,170 L203.414695,173.934067 Z" id="路径-275" fill="#87B0FB"></path>
                    <path d="M54.5677436,178.39786 L1.56064455,350.730965 C0.923986927,352.800823 2.08582564,354.994888 4.15568395,355.631545 C4.52916047,355.746421 4.91771019,355.804827 5.30845455,355.804827 C8.48910087,355.804827 11.3235398,353.797779 12.3798109,350.797645 L71.5703285,182.678429 L71.5703285,182.678429 L54.5677436,178.39786 Z" id="路径-276" fill="#A4C3FC"></path>
                    <g id="编组-72" transform="translate(5.000000, 0.413281)">
                        <mask id="mask-6" fill="white">
                            <use xlink:href="#path-5"></use>
                        </mask>
                        <use id="路径-271" fill="#FFFFFF" xlink:href="#path-5"></use>
                        <path d="M23.4146954,167.640335 C62.34168,153.170722 90.4621227,144.52134 107.776024,141.692188 C125.089924,138.863035 156.331405,139.931899 201.500467,144.898779 L198.719383,180.265148 L71.2935166,199.056716 L18.3248517,180.265148 L23.4146954,167.640335 Z" id="路径-346" fill="#EFF5FF" mask="url(#mask-6)"></path>
                        <path d="M1.20215225,132.599141 C6.77085166,155.686605 20.4404383,169.247373 42.2109123,173.281447 C74.8666231,179.332557 149.518812,182.531363 168.817289,173.281447 C188.115766,164.031531 202.757593,144.375954 207.570592,129.003125 C212.383591,113.630297 246.829847,43.1530025 272.49375,32.5297549 L249.040979,186.632342 L21.4545908,203.864483 L-5,168.673391 L1.20215225,132.599141 Z" id="路径-272" fill="#A4C3FC" mask="url(#mask-6)"></path>
                        <path d="M112.041454,9.51687634 C54.3461071,27.4084181 23.0907106,41.9790608 14.3980408,53.1673521 C9.36706147,59.6427002 5.57169984,74.5002042 2.95861159,97.800241 C-4.47549022,147.216103 6.46845465,174.039623 35.8738111,177.97098 L51.4768909,180.086064 C78.4622506,183.726245 94.3331093,185.382974 112.562263,186.039323 C136.974058,186.918281 159.74085,185.348324 182.470376,180.739548 C231.7887,170.739466 249.341578,157.565449 254.202838,131.863469 L260.21916,98.6453537 L262.056139,88.3677736 C265.075321,71.3008477 267.033745,59.2064725 268.01713,51.0877408 L268.109255,50.3144345 C268.531601,46.7068493 269.153299,43.2566807 270.127961,38.7693815 L271.866397,30.820176 C272.986919,25.5884662 272.95739,25.1484019 272.991798,22.6379739 C273.055644,17.9797363 271.528214,14.8965837 267.838935,13.0241636 C261.157578,9.63317362 235.584258,4.27903194 210.173514,1.95086206 C175.003604,-1.27145689 141.281139,0.654311603 113.059124,9.20493028 L112.041454,9.51687634 Z M210.082274,2.94669106 L211.599974,3.08931749 C236.387538,5.47666397 260.977313,10.6631057 267.386358,13.9158887 C270.613208,15.5536123 271.976579,18.173832 271.99358,22.2787455 L271.975138,23.6851082 C271.934833,25.4131663 271.789117,26.4464199 270.718057,31.4024724 L269.308179,37.8371469 C268.28971,42.4652236 267.633305,45.9931001 267.1851,49.6238503 L266.926228,51.7651311 C265.865689,60.2537802 263.794758,72.8912649 260.625465,90.7073794 L257.818051,106.277323 L253.361671,130.906023 C251.125663,143.504305 246.349167,152.260566 236.743692,159.621901 C225.896318,167.934989 208.632056,174.414497 182.271654,179.759492 C160.116439,184.251817 137.921643,185.846778 114.183117,185.093652 L112.598246,185.039971 C95.0919417,184.409648 79.7564702,182.853682 54.5955175,179.495611 L36.0063273,176.979799 C7.29792776,173.141622 -3.41450913,146.885526 3.94993334,97.9303457 L4.12468534,96.4002274 C6.71306726,74.1412031 10.4166022,59.9217537 15.1877122,53.7808821 C23.7054204,42.8177831 54.8478425,28.2998067 112.337643,10.4720056 C140.62208,1.70089662 174.60834,-0.30348314 210.082274,2.94669106 Z" id="路径-271" fill="#A4C3FC" fill-rule="nonzero"></path>
                    </g>
                </g>
                <g id="编组" transform="translate(589.667702, 142.000000)">
                    <g id="编组-3" transform="translate(0.916788, 0.536091)">
                        <g id="编组-92" transform="translate(13.783020, 263.976940)">
                            <mask id="mask-8" fill="white">
                                <use xlink:href="#path-7"></use>
                            </mask>
                            <use id="路径-277" fill="#E5EDFF" xlink:href="#path-7"></use>
                            <polygon id="路径-277" fill="#FFDC9C" mask="url(#mask-8)" points="4.54747351e-13 4.31685937e-14 104 4.18571428e-14 102.49314 18 1.3675705 18"></polygon>
                            <polygon id="路径-277" fill="#FFE4B3" mask="url(#mask-8)" points="6 2 96 2 94.6959868 16 7.18347447 16"></polygon>
                        </g>
                        <g id="编组-85" transform="translate(0.000000, -0.000000)">
                            <g id="编组-107" transform="translate(72.784203, -0.000000)">
                                <mask id="mask-10" fill="white">
                                    <use xlink:href="#path-9"></use>
                                </mask>
                                <use id="路径-282" fill="#EDFFF5" xlink:href="#path-9"></use>
                                <path d="M61.3604004,-1 C73.3053368,17.5539438 77.9388389,40.336878 75.2609067,67.3488028 C71.2440084,107.86669 48.3633833,128.130631 23.2506908,123.563809 C-1.8620018,118.996987 -7.37105568,84.464366 0.0551104884,67.3488028 C7.48127666,50.2332396 20.3160181,47.8719418 36.498267,32.8427044 C47.2864329,22.8232129 55.5738107,11.5423114 61.3604004,-1 Z" id="路径-282" fill="#D3F0E0" mask="url(#mask-10)"></path>
                                <path d="M51.4067169,20.9534087 C40.9652108,33.6200754 30.8588732,44.2867421 21.087704,52.9534087 C6.43095021,65.9534087 -1.751797,82.48563 9.6679535,114.502237 L-12.9005773,106.845987 C-3.87876628,60.5489109 1.69472032,36.2513849 3.81988254,33.9534087 C5.94504476,31.6554326 21.8073229,27.3220993 51.4067169,20.9534087 Z" id="路径-348" fill="#C6E3D3" mask="url(#mask-10)"></path>
                            </g>
                            <g id="编组-109" transform="translate(76.604086, 168.944319)">
                                <mask id="mask-12" fill="white">
                                    <use xlink:href="#path-11"></use>
                                </mask>
                                <use id="路径-283" fill="#EDFFF5" xlink:href="#path-11"></use>
                                <path d="M47.5868344,0.00908985173 C26.0964855,8.52718701 11.8306319,16.2587044 4.78927345,23.2036421 C-2.25208499,30.1485798 -3.77806358,38.4283672 0.211337688,48.0430044 C6.09100035,57.4229385 14.2862742,60.4712569 24.7971592,57.1879595 C40.5634867,52.2630135 41.5645887,34.7673016 42.8334753,21.9983296 C43.6793996,13.4856815 45.2638527,6.15593494 47.5868344,0.00908985173 Z" id="路径-283" fill="#D3F0E0" mask="url(#mask-12)"></path>
                                <path d="M32.6783845,7.02680585 C5.44755239,21.2200733 -3.49588545,36.6858477 5.84807096,53.4241289 L-5.88647542,39.2756914 L8.35082927,12.0556811 L33.1789349,3.20928516 L32.6783845,7.02680585 Z" id="路径-338" fill="#C6E3D3" mask="url(#mask-12)"></path>
                            </g>
                            <g id="编组-108" transform="translate(0.000000, 117.671937)">
                                <mask id="mask-14" fill="white">
                                    <use xlink:href="#path-13"></use>
                                </mask>
                                <use id="路径-285" fill="#EDFFF5" xlink:href="#path-13"></use>
                                <path d="M-2,2 C14.6455403,2.03297371 28.1637053,6.39841925 38.5544951,15.0963366 C54.1406797,28.1432127 60.2842186,51.6088609 51.8704101,65.88877 C43.4566015,80.1686792 26.825788,75.1428732 19.0554705,69.9591167 C11.285153,64.7753603 4.55088394,50.3421561 4.55088394,32.7192464 C4.55088394,20.9706399 2.36725596,10.7308911 -2,2 Z" id="路径-285" fill="#D3F0E0" mask="url(#mask-14)"></path>
                            </g>
                            <path d="M113.385819,184.003502 C113.577885,183.805095 113.894426,183.799956 114.092833,183.992022 C114.291239,184.184089 114.296378,184.50063 114.104312,184.699036 C99.1502815,200.146677 84.0762035,226.637831 68.8997506,264.1644 C68.7962194,264.4204 68.504762,264.544 68.2487621,264.440469 C67.9927623,264.336938 67.869162,264.04548 67.9726932,263.789481 L68.8858139,261.54461 C83.7983864,225.094833 98.6261769,199.250338 113.385819,184.003502 Z" id="路径-278" fill="#A9C7B6" fill-rule="nonzero"></path>
                            <path d="M136.684127,23.4585223 C136.791732,23.204208 137.085125,23.0852766 137.339439,23.1928815 C137.593754,23.3004865 137.712685,23.5938801 137.60508,23.8481944 L122.292103,59.971168 C106.080599,98.1341824 92.8047638,129.105648 82.4645201,152.885741 C69.0646782,183.702179 62.0499827,220.734418 61.4251319,263.984163 C61.4211427,264.260277 61.1940746,264.480877 60.9179611,264.476942 C60.6418475,264.472899 60.4212471,264.245831 60.425183,263.969717 C61.0451549,221.061354 67.9404313,184.233367 81.1156138,153.48741 L87.9240044,137.772348 C100.599905,108.431483 116.853314,70.326796 136.684127,23.4585223 Z" id="路径-280" fill="#A9C7B6" fill-rule="nonzero"></path>
                            <path d="M13.4253064,127.354948 C13.6182434,127.157388 13.9348037,127.153641 14.1323637,127.346578 C42.7469161,155.291534 58.5016786,200.833423 61.4246488,263.953811 C61.4374227,264.229658 61.22416,264.463631 60.9483132,264.47695 C60.6724664,264.489179 60.4384932,264.275916 60.4257193,264.00007 C57.513425,201.110224 41.8400784,155.803681 13.4336771,128.062005 C13.2361172,127.869068 13.2323695,127.552508 13.4253064,127.354948 Z" id="路径-281" fill="#A9C7B6" fill-rule="nonzero"></path>
                            <path d="M42.7989266,171.879268 C33.852175,168.353839 26.5701575,163.53975 20.952874,157.437003 C27.1094582,165.960409 34.6727848,171.48375 43.6428538,174.007025 L43.2720897,172.972397 L42.7989266,171.879268 Z" id="路径-286" fill="#A9C7B6"></path>
                            <path d="M40.546568,145.00795 C33.4490946,142.242077 27.6722576,138.465187 23.2160569,133.67728 C28.1000858,140.364313 34.1000858,144.697647 41.2160569,146.67728 L40.9219292,145.865564 L40.546568,145.00795 Z" id="路径-286" fill="#A9C7B6" transform="translate(32.216057, 140.177280) scale(-1, 1) rotate(57.000000) translate(-32.216057, -140.177280) "></path>
                            <path d="M134.312226,112.614748 C120.117279,107.083002 108.563605,99.5292223 99.6512039,89.9534087 C109.419262,103.327475 121.419262,111.994141 135.651204,115.953409 L135.062948,114.329976 L134.312226,112.614748 Z" id="路径-286" fill="#A9C7B6" transform="translate(117.651204, 102.953409) scale(-1, 1) rotate(-6.000000) translate(-117.651204, -102.953409) "></path>
                            <path d="M139.318104,81.9506603 C128.27759,77.6954709 119.291399,71.884871 112.359531,64.5188606 C119.956909,74.8066035 129.290242,81.4732702 140.359531,84.5188606 L139.901999,83.2700662 L139.318104,81.9506603 Z" id="路径-286" fill="#A9C7B6" transform="translate(126.359531, 74.518861) scale(-1, 1) rotate(-6.000000) translate(-126.359531, -74.518861) "></path>
                            <path d="M112.609777,91.3852084 C101.569263,87.130019 92.5830716,81.3194192 85.6512039,73.9534087 C93.2485821,84.2411517 102.581915,90.9078184 113.651204,93.9534087 L113.193672,92.7046143 L112.609777,91.3852084 Z" id="路径-286" fill="#A9C7B6" transform="translate(99.651204, 83.953409) rotate(37.000000) translate(-99.651204, -83.953409) "></path>
                            <path d="M125.018909,57.4124885 C118.315739,54.8593749 112.859838,51.373015 108.651204,46.9534087 C113.263898,53.1260545 118.930564,57.1260545 125.651204,58.9534087 L125.373417,58.2041321 L125.018909,57.4124885 Z" id="路径-286" fill="#A9C7B6" transform="translate(117.151204, 52.953409) rotate(37.000000) translate(-117.151204, -52.953409) "></path>
                            <path d="M146.643256,42.7422628 C139.545782,39.9763898 133.768945,36.1994998 129.312745,31.4115931 C134.196774,38.098626 140.196774,42.4319593 147.312745,44.4115931 L147.018617,43.5998767 L146.643256,42.7422628 Z" id="路径-286" fill="#A9C7B6" transform="translate(138.312745, 37.911593) scale(-1, 1) rotate(-6.000000) translate(-138.312745, -37.911593) "></path>
                            <path d="M107.981715,217.284079 C100.884242,214.518205 95.1074045,210.741316 90.6512039,205.953409 C95.5352327,212.640442 101.535233,216.973775 108.651204,218.953409 L108.357076,218.141692 L107.981715,217.284079 Z" id="路径-286" fill="#A9C7B6" transform="translate(99.651204, 212.453409) scale(-1, 1) rotate(-4.000000) translate(-99.651204, -212.453409) "></path>
                            <path d="M106.981715,199.284079 C99.8842416,196.518205 94.1074045,192.741316 89.6512039,187.953409 C94.5352327,194.640442 100.535233,198.973775 107.651204,200.953409 L107.357076,200.141692 L106.981715,199.284079 Z" id="路径-286" fill="#A9C7B6" transform="translate(98.651204, 194.453409) rotate(63.000000) translate(-98.651204, -194.453409) "></path>
                        </g>
                    </g>
                </g>
                <circle id="椭圆形" stroke="#979797" fill="#D8D8D8" cx="184.667702" cy="166" r="10.5"></circle>
                <rect id="矩形" stroke="#979797" fill="#D8D8D8" x="208.167702" y="159.5" width="58" height="4" rx="2"></rect>
                <rect id="矩形" stroke="#979797" fill="#D8D8D8" x="208.167702" y="168.5" width="31" height="4" rx="2"></rect>
                <rect id="矩形" fill="#6EA0FD" x="141.667702" y="77" width="200" height="122" rx="4"></rect>
                <rect id="矩形" fill="#FFFFFF" x="147.667702" y="82" width="188" height="112" rx="4"></rect>
                <rect id="矩形" fill="#FFE9BF" x="168.667702" y="97" width="77" height="44"></rect>
                <rect id="矩形" fill="#DDE9FF" x="165.667702" y="94" width="77" height="44"></rect>
                <rect id="矩形" fill="#DAE8FF" x="233.667702" y="305" width="32" height="32" rx="4"></rect>
                <path d="M250,318 C250.666667,308.314571 249.5,299.543412 246.5,291.686523 C242,279.901191 242.667702,269.320313 251.667702,262.294922 C260.667702,255.269531 269.250234,248.568359 257.370827,226.931641 C249.451222,212.507161 246.99428,201.540479 250,194.031592" id="路径-427" stroke="#C8D9FF" stroke-width="4" stroke-linecap="round"></path>
                <rect id="矩形" fill="#A4C3FC" x="238.667702" y="318" width="22" height="23" rx="4"></rect>
                <path d="M247.077637,313.029761 L248.077637,313.029761 L248.077637,316.029761 L247.077637,316.029761 L247.077637,315.215576 C246.791153,315.423248 246.473035,315.461024 246.123283,315.328903 C245.598656,315.130722 245.451927,314.645386 245.5,314.261108 C245.548073,313.876831 245.851936,313.603714 245.98394,313.533234 C246.115944,313.462753 246.490726,313.237576 247.077637,313.555176 L247.077637,313.029761 Z" id="路径-426" fill="#A4C3FC"></path>
                <path d="M253.253919,313.029761 L254.253919,313.029761 L254.253919,316.029761 L253.253919,316.029761 L253.253919,315.215576 C252.967435,315.423248 252.649317,315.461024 252.299565,315.328903 C251.774938,315.130722 251.628209,314.645386 251.676282,314.261108 C251.724355,313.876831 252.028218,313.603714 252.160222,313.533234 C252.292226,313.462753 252.667008,313.237576 253.253919,313.555176 L253.253919,313.029761 Z" id="路径-426" fill="#A4C3FC" transform="translate(252.960810, 314.529761) scale(-1, 1) translate(-252.960810, -314.529761) "></path>
                <path d="M161.702858,138 C170.731326,124.938574 180.037966,119.178483 189.62278,120.719727 C204,123.031592 211.883522,121 216.025124,115.031592 C220.166725,109.063184 223.973366,99.629248 241.667702,97.8304199" id="路径-428" stroke="#FFD07A"></path>
                <rect id="矩形" fill="#DDE9FF" x="255.667702" y="101" width="62" height="4" rx="2"></rect>
                <rect id="矩形" fill="#DDE9FF" x="255.667702" y="111" width="63" height="4" rx="2"></rect>
                <rect id="矩形" fill="#DDE9FF" x="255.667702" y="123" width="50" height="4" rx="2"></rect>
                <rect id="矩形" fill="#DDE9FF" x="166.667702" y="152" width="104" height="28"></rect>
                <circle id="椭圆形" fill="#6EA0FD" cx="184.667702" cy="166" r="11"></circle>
                <g id="xinfeng" transform="translate(178.667702, 162.000000)" fill="#FFFFFF" fill-rule="nonzero">
                    <path d="M0,1.24892209 C0.000785455974,0.558550411 0.611739294,-0.000599046043 1.36492612,4.81663989e-07 L10.6346157,4.81663989e-07 C11.3879989,4.81663989e-07 12,0.560590445 12,1.24892209 L12,6.75113515 C11.9994109,7.44150682 11.3883916,8.00071628 10.6352702,8.00000048 L1.36558066,8.00000048 C0.612262931,8.00000048 0,7.43946679 0,6.75113515 L0,1.24892209 Z M10.909198,3.13271395 L6.28096415,5.67879701 C6.10809824,5.774079 5.89196722,5.774079 5.71910131,5.67879701 L1.09099835,3.13247394 L1.09099835,6.75083514 C1.09099835,6.88655744 1.21464221,6.99972724 1.36558066,6.99972724 L10.6344193,6.99972724 C10.7067714,7.00024633 10.7763772,6.9743545 10.82787,6.92776 C10.8793628,6.88116549 10.9085078,6.81770014 10.9088707,6.75137515 L10.9088707,3.13217394 L10.909198,3.13271395 Z M10.4718954,2.20695829 C10.6964704,2.0832962 10.909198,1.73949038 10.909198,1.50170636 L10.909198,1.24916209 C10.909198,1.11179885 10.7878675,1.00036863 10.6380193,1.00003788 L1.36204611,1.00003788 C1.21221728,1.00043439 1.09094556,1.11181641 1.09080198,1.24916209 L1.09080198,1.50170636 C1.09080198,1.73805036 1.30490419,2.08425622 1.52797369,2.20671829 L5.99990182,4.6671199 L10.4718954,2.20695829 L10.4718954,2.20695829 Z" id="形状"></path>
                </g>
                <rect id="矩形" fill="#6EA0FD" x="201.667702" y="159" width="60" height="5" rx="2.5"></rect>
                <rect id="矩形" fill="#6EA0FD" x="201.667702" y="168" width="38" height="5" rx="2.5"></rect>
                <rect id="矩形" fill="#FBC869" x="280.667702" y="152" width="35" height="28"></rect>
                <circle id="椭圆形" fill="#FFFFFF" cx="298.167702" cy="165.5" r="9.5"></circle>
                <polyline id="路径-429" stroke="#6EA0FD" points="292.14817 165.5 296.522194 170.531592 303.930556 161.531592"></polyline>
            </g>
        </g>
    </g>
</svg>